<?xml version="1.0" encoding="UTF-8" standalone="no"?>
<!-- Generator: Adobe Illustrator 17.0.0, SVG Export Plug-In . SVG Version: 6.00 Build 0)  -->

<svg
   xmlns:dc="http://purl.org/dc/elements/1.1/"
   xmlns:cc="http://creativecommons.org/ns#"
   xmlns:rdf="http://www.w3.org/1999/02/22-rdf-syntax-ns#"
   xmlns:svg="http://www.w3.org/2000/svg"
   xmlns="http://www.w3.org/2000/svg"
   xmlns:sodipodi="http://sodipodi.sourceforge.net/DTD/sodipodi-0.dtd"
   xmlns:inkscape="http://www.inkscape.org/namespaces/inkscape"
   version="1.1"
   id="Warstwa_1"
   x="0px"
   y="0px"
   width="707.1px"
   height="200px"
   viewBox="0 0 707.1 200"
   enable-background="new 0 0 707.1 200"
   xml:space="preserve"
   sodipodi:docname="logo.svg"
   inkscape:version="0.92.2 5c3e80d, 2017-08-06"><metadata
     id="metadata37"><rdf:RDF><cc:Work
         rdf:about=""><dc:format>image/svg+xml</dc:format><dc:type
           rdf:resource="http://purl.org/dc/dcmitype/StillImage" /></cc:Work></rdf:RDF></metadata><defs
     id="defs35" /><sodipodi:namedview
     pagecolor="#ffffff"
     bordercolor="#666666"
     borderopacity="1"
     objecttolerance="10"
     gridtolerance="10"
     guidetolerance="10"
     inkscape:pageopacity="0"
     inkscape:pageshadow="2"
     inkscape:window-width="1042"
     inkscape:window-height="763"
     id="namedview33"
     showgrid="false"
     inkscape:zoom="1.2960125"
     inkscape:cx="349.37434"
     inkscape:cy="111.4216"
     inkscape:window-x="0"
     inkscape:window-y="0"
     inkscape:window-maximized="0"
     inkscape:current-layer="Warstwa_1" /><text
     xml:space="preserve"
     style="font-style:normal;font-weight:normal;font-size:42.95109177px;line-height:1.25;font-family:sans-serif;letter-spacing:0px;word-spacing:0px;fill:#000000;fill-opacity:1;stroke:none;stroke-width:1.07377732"
     x="80.527588"
     y="131.26036"
     id="text3730"><tspan
       sodipodi:role="line"
       id="tspan3728"
       x="80.527588"
       y="131.26036"
       style="font-style:normal;font-variant:normal;font-weight:normal;font-stretch:normal;font-size:103.08261108px;font-family:Noteworthy;-inkscape-font-specification:Noteworthy;stroke-width:1.07377732">      Books</tspan></text>
<g
     id="g4043"
     transform="matrix(0.3677947,0,0,0.40893135,1.7064736,-1.2590293)"><g
       id="g3953"><g
         id="g3897"
         transform="translate(-16.313449,83.143533)"><rect
           id="rect3895"
           height="120"
           width="408"
           style="fill:#ffebb7"
           y="36"
           x="71.780998" /></g><g
         id="g3911"
         transform="translate(-27.189081,83.143533)"><path
           id="path3909"
           d="m 479.781,76 h -368 c -4.418,0 -8,-3.582 -8,-8 v 0 c 0,-4.418 3.582,-8 8,-8 h 368 z"
           style="fill:#e6be94"
           inkscape:connector-curvature="0" /></g><g
         id="g3915"
         transform="translate(-32.626897,83.143533)"><path
           id="path3913"
           d="m 479.781,108 h -368 c -4.418,0 -8,-3.582 -8,-8 v 0 c 0,-4.418 3.582,-8 8,-8 h 368 z"
           style="fill:#e6be94"
           inkscape:connector-curvature="0" /></g><g
         id="g3919"
         transform="translate(-27.189081,83.143533)"><path
           id="path3917"
           d="m 479.781,140 h -368 c -4.418,0 -8,-3.582 -8,-8 v 0 c 0,-4.418 3.582,-8 8,-8 h 368 z"
           style="fill:#e6be94"
           inkscape:connector-curvature="0" /></g><g
         id="g3935"
         transform="translate(-27.189081,73.361941)"><path
           id="path3933"
           d="M 488,172 H 104 C 77.531,172 56,150.469 56,124 V 60 C 56,33.531 77.531,12 104,12 h 384 c 8.836,0 16,7.164 16,16 0,8.836 -7.164,16 -16,16 H 104 c -8.824,0 -16,7.176 -16,16 v 64 c 0,8.82 7.176,16 16,16 h 384 c 8.836,0 16,7.164 16,16 0,8.836 -7.164,16 -16,16 z"
           style="fill:#ff4f19"
           inkscape:connector-curvature="0" /></g><g
         transform="translate(-16.313449,239.64912)"
         id="g4047"><rect
           x="71.780998"
           y="36"
           style="fill:#ffebb7"
           width="408"
           height="120"
           id="rect4045" /></g><g
         transform="translate(-27.189081,239.64912)"
         id="g4051"><path
           inkscape:connector-curvature="0"
           style="fill:#e6be94"
           d="m 479.781,76 h -368 c -4.418,0 -8,-3.582 -8,-8 v 0 c 0,-4.418 3.582,-8 8,-8 h 368 z"
           id="path4049" /></g><g
         transform="translate(-32.626897,239.64912)"
         id="g4055"><path
           inkscape:connector-curvature="0"
           style="fill:#e6be94"
           d="m 479.781,108 h -368 c -4.418,0 -8,-3.582 -8,-8 v 0 c 0,-4.418 3.582,-8 8,-8 h 368 z"
           id="path4053" /></g><g
         transform="translate(-27.189081,239.64912)"
         id="g4059"><path
           inkscape:connector-curvature="0"
           style="fill:#e6be94"
           d="m 479.781,140 h -368 c -4.418,0 -8,-3.582 -8,-8 v 0 c 0,-4.418 3.582,-8 8,-8 h 368 z"
           id="path4057" /></g><g
         transform="translate(-27.189081,234.75832)"
         id="g4063"><path
           inkscape:connector-curvature="0"
           style="fill:#ff4f19"
           d="M 488,172 H 104 C 77.531,172 56,150.469 56,124 V 60 C 56,33.531 77.531,12 104,12 h 384 c 8.836,0 16,7.164 16,16 0,8.836 -7.164,16 -16,16 H 104 c -8.824,0 -16,7.176 -16,16 v 64 c 0,8.82 7.176,16 16,16 h 384 c 8.836,0 16,7.164 16,16 0,8.836 -7.164,16 -16,16 z"
           id="path4061" /></g><path
         style="fill:#008000;stroke-width:0.7715975"
         d="m 25.08385,163.80829 c -3.925593,-1.2242 -8.003298,-4.86112 -10.380383,-9.25831 -1.546452,-2.86066 -1.686422,-4.37233 -1.913807,-20.66908 -0.201262,-14.42452 -0.02693,-18.24022 0.970557,-21.24338 1.592191,-4.79364 5.028663,-8.87157 9.162417,-10.87268 3.306953,-1.60087 3.858508,-1.61248 76.603203,-1.61248 79.599783,0 75.903483,-0.200282 77.000913,4.17224 0.5689,2.26668 -0.62435,5.73351 -2.45111,7.1214 -1.0606,0.80578 -15.52581,1.00766 -73.61421,1.02738 l -72.294237,0.0245 -2.16492,1.86086 -2.164921,1.86085 -0.258144,14.14678 c -0.305582,16.74647 0.238489,19.52673 4.140239,21.15698 2.207445,0.92233 14.07037,1.0976 74.290683,1.0976 71.26349,0 71.67176,0.009 73.09506,1.58157 2.21682,2.44955 1.88496,6.71578 -0.69503,8.93499 l -2.12634,1.829 -71.90844,-0.0516 c -58.54249,-0.042 -72.537273,-0.24772 -75.29153,-1.10664 z"
         id="path4067"
         inkscape:connector-curvature="0"
         transform="matrix(2.7189081,0,0,2.4453982,-4.6397449,3.078828)" /></g><g
       id="g3955" /><g
       id="g3957" /><g
       id="g3959" /><g
       id="g3961" /><g
       id="g3963" /><g
       id="g3965" /><g
       id="g3967" /><g
       id="g3969" /><g
       id="g3971" /><g
       id="g3973" /><g
       id="g3975" /><g
       id="g3977" /><g
       id="g3979" /><g
       id="g3981" /><g
       id="g3983" /></g></svg>